# xmcd
#
# Track frame offsets:
#	150
#	23927
#	49521
#	73738
#	94237
#	118658
#	143622
#	165510
#	187964
#	206331
#	223347
#	259266
#	279243
#
# Disc length: 4361 seconds
#
# Revision: 1
# Processed by: cddbd v1.5.2PL0 Copyright (c) Steve Scherf et al.
# Submitted via: audiograbber 1.83.01
#
DISCID=bc11070d
DTITLE=Pat Travers - Stick with what you know - Live in Europe
DYEAR=2007
DGENRE=Blues
TTITLE0=Life in London
TTITLE1=Crash and Burn
TTITLE2=I Dont Care
TTITLE3=Heat in the Street
TTITLE4=Elijah
TTITLE5=Red House
TTITLE6=If I Had Possession Over Judge
TTITLE7=Oh Pretty Woman
TTITLE8=Pt Nutz Aka Linus and Lucy
TTITLE9=Snortin Whiskey
TTITLE10=Boom Boom (Out Go the Lights)
TTITLE11=Pts Solo Time
TTITLE12=Born Under A Bad Sign
EXTD=
EXTT0=
EXTT1=
EXTT2=
EXTT3=
EXTT4=
EXTT5=
EXTT6=
EXTT7=
EXTT8=
EXTT9=
EXTT10=
EXTT11=
EXTT12=
PLAYORDER=
